<svg xmlns="http://www.w3.org/2000/svg" width="1600" height="1200" viewBox="0 0 1600 1200">
  <defs>
    <filter id="noise">
      <feTurbulence type="fractalNoise" baseFrequency="0.85" numOctaves="3" stitchTiles="stitch"/>
      <feColorMatrix type="saturate" values="0"/>
      <feComponentTransfer>
        <feFuncA type="table" tableValues="0 0.06"/>
      </feComponentTransfer>
    </filter>
    <radialGradient id="v1" cx="20%" cy="20%" r="60%">
      <stop offset="0%" stop-color="#f6ecd2"/>
      <stop offset="100%" stop-color="#d7bf8e"/>
    </radialGradient>
    <radialGradient id="stain1" cx="50%" cy="50%" r="50%">
      <stop offset="0%" stop-color="#8b5e34" stop-opacity="0.20"/>
      <stop offset="100%" stop-color="#8b5e34" stop-opacity="0"/>
    </radialGradient>
    <radialGradient id="stain2" cx="50%" cy="50%" r="50%">
      <stop offset="0%" stop-color="#6b3f1c" stop-opacity="0.14"/>
      <stop offset="100%" stop-color="#6b3f1c" stop-opacity="0"/>
    </radialGradient>
  </defs>
  <rect width="1600" height="1200" fill="url(#v1)"/>
  <rect width="1600" height="1200" filter="url(#noise)" opacity="0.55"/>
  <ellipse cx="250" cy="230" rx="220" ry="160" fill="url(#stain1)"/>
  <ellipse cx="1300" cy="220" rx="180" ry="120" fill="url(#stain2)"/>
  <ellipse cx="1180" cy="920" rx="260" ry="180" fill="url(#stain1)"/>
  <ellipse cx="320" cy="930" rx="190" ry="130" fill="url(#stain2)"/>
  <path d="M0,1180 C250,1120 420,1130 620,1170 C870,1215 1110,1205 1600,1140 L1600,1200 L0,1200 Z" fill="#7f5c3c" opacity="0.10"/>
  <path d="M0,0 C300,60 560,80 840,40 C1120,0 1320,10 1600,65 L1600,0 Z" fill="#fff7e2" opacity="0.18"/>
</svg>
