<svg xmlns="http://www.w3.org/2000/svg" width="1600" height="1200" viewBox="0 0 1600 1200">
  <defs>
    <linearGradient id="paper" x1="0" y1="0" x2="1" y2="1">
      <stop offset="0%" stop-color="#6f563f"/>
      <stop offset="40%" stop-color="#8b6b4b"/>
      <stop offset="100%" stop-color="#4e3a2c"/>
    </linearGradient>
    <filter id="grain">
      <feTurbulence type="fractalNoise" baseFrequency="0.9" numOctaves="2" stitchTiles="stitch" result="noise"/>
      <feColorMatrix type="saturate" values="0"/>
      <feComponentTransfer>
        <feFuncA type="table" tableValues="0 0.08"/>
      </feComponentTransfer>
    </filter>
    <radialGradient id="glow" cx="50%" cy="45%" r="65%">
      <stop offset="0%" stop-color="#d7be90" stop-opacity="0.32"/>
      <stop offset="55%" stop-color="#9a744f" stop-opacity="0.16"/>
      <stop offset="100%" stop-color="#2f2218" stop-opacity="0.08"/>
    </radialGradient>
  </defs>
  <rect width="1600" height="1200" fill="url(#paper)"/>
  <rect width="1600" height="1200" fill="url(#glow)"/>
  <rect width="1600" height="1200" filter="url(#grain)" opacity="0.65"/>
  <g fill="#2c1d14" opacity="0.16">
    <circle cx="220" cy="190" r="110"/>
    <circle cx="1360" cy="280" r="130"/>
    <circle cx="450" cy="980" r="155"/>
    <circle cx="1210" cy="950" r="180"/>
  </g>
  <g stroke="#d9c8a0" stroke-opacity="0.12" fill="none">
    <path d="M0 180 C240 130 390 250 620 215 C800 190 960 85 1180 140 C1360 185 1480 185 1600 150" stroke-width="6"/>
    <path d="M0 600 C220 540 380 700 600 650 C820 600 1020 470 1240 540 C1380 585 1500 575 1600 550" stroke-width="5"/>
    <path d="M0 980 C280 915 460 1085 690 1025 C920 965 1080 860 1310 915 C1445 950 1530 955 1600 935" stroke-width="4"/>
  </g>
</svg>
